<svg width="136" height="120" viewBox="0 0 136 120" fill="none" xmlns="http://www.w3.org/2000/svg">
<path d="M3.88043 35.6165C3.88043 36.9352 3.04891 37.9243 1.94022 37.9243C0.831521 37.9243 0 36.9352 0 35.6165C0 34.2977 0.831521 33.3086 1.94022 33.3086C3.04891 33.3086 3.88043 34.4076 3.88043 35.6165Z" fill="#FFCF2D"/>
<path d="M20.4185 35.6164C20.4185 36.9351 19.587 37.9242 18.4783 37.9242C17.3696 37.9242 16.5381 36.9351 16.5381 35.6164C16.5381 34.2977 17.3696 33.3086 18.4783 33.3086C19.4946 33.3086 20.4185 34.4075 20.4185 35.6164Z" fill="#FFCF2D"/>
<path d="M36.8643 35.6165C36.8643 36.9352 36.0328 37.9243 34.9241 37.9243C33.8154 37.9243 32.9839 36.9352 32.9839 35.6165C32.9839 34.2977 33.8154 33.3086 34.9241 33.3086C36.0328 33.3086 36.8643 34.4076 36.8643 35.6165Z" fill="#FFCF2D"/>
<path d="M53.4024 35.6165C53.4024 36.9352 52.5709 37.9243 51.4622 37.9243C50.3535 37.9243 49.522 36.9352 49.522 35.6165C49.522 34.2977 50.3535 33.3086 51.4622 33.3086C52.5709 33.3086 53.4024 34.4076 53.4024 35.6165Z" fill="#FFCF2D"/>
<path d="M69.94 35.6165C69.94 36.9352 69.1085 37.9243 67.9998 37.9243C66.8911 37.9243 66.0596 36.9352 66.0596 35.6165C66.0596 34.2977 66.8911 33.3086 67.9998 33.3086C69.0161 33.3086 69.94 34.4076 69.94 35.6165Z" fill="#FFCF2D"/>
<path d="M86.4781 35.6165C86.4781 36.9352 85.6466 37.9243 84.5379 37.9243C83.4292 37.9243 82.5977 36.9352 82.5977 35.6165C82.5977 34.2977 83.4292 33.3086 84.5379 33.3086C85.6466 33.3086 86.4781 34.4076 86.4781 35.6165Z" fill="#FFCF2D"/>
<path d="M102.924 35.6165C102.924 36.9352 102.092 37.9243 100.984 37.9243C99.875 37.9243 99.0435 36.9352 99.0435 35.6165C99.0435 34.2977 99.875 33.3086 100.984 33.3086C102.092 33.3086 102.924 34.4076 102.924 35.6165Z" fill="#FFCF2D"/>
<path d="M119.462 35.6165C119.462 36.9352 118.63 37.9243 117.522 37.9243C116.413 37.9243 115.582 36.9352 115.582 35.6165C115.582 34.2977 116.413 33.3086 117.522 33.3086C118.63 33.3086 119.462 34.4076 119.462 35.6165Z" fill="#FFCF2D"/>
<path d="M136 35.6164C136 36.9351 135.169 37.9242 134.06 37.9242C132.951 37.9242 132.12 36.9351 132.12 35.6164C132.12 34.2977 132.951 33.3086 134.06 33.3086C135.076 33.3086 136 34.4075 136 35.6164Z" fill="#FFCF2D"/>
<path d="M3.88043 51.9916C3.88043 53.3105 3.04891 54.2996 1.94022 54.2996C0.831521 54.2996 0 53.3105 0 51.9916C0 50.6727 0.831521 49.6836 1.94022 49.6836C3.04891 49.6836 3.88043 50.6727 3.88043 51.9916Z" fill="#FFCF2D"/>
<path d="M20.4185 51.9915C20.4185 53.3104 19.587 54.2995 18.4783 54.2995C17.3696 54.2995 16.5381 53.3104 16.5381 51.9915C16.5381 50.6727 17.3696 49.6836 18.4783 49.6836C19.4946 49.6836 20.4185 50.6727 20.4185 51.9915Z" fill="#FFCF2D"/>
<path d="M36.8643 51.9916C36.8643 53.3105 36.0328 54.2996 34.9241 54.2996C33.8154 54.2996 32.9839 53.3105 32.9839 51.9916C32.9839 50.6727 33.8154 49.6836 34.9241 49.6836C36.0328 49.6836 36.8643 50.6727 36.8643 51.9916Z" fill="#FFCF2D"/>
<path d="M53.4024 51.9916C53.4024 53.3105 52.5709 54.2996 51.4622 54.2996C50.3535 54.2996 49.522 53.3105 49.522 51.9916C49.522 50.6727 50.3535 49.6836 51.4622 49.6836C52.5709 49.6836 53.4024 50.6727 53.4024 51.9916Z" fill="#FFCF2D"/>
<path d="M69.94 51.9916C69.94 53.3105 69.1085 54.2996 67.9998 54.2996C66.8911 54.2996 66.0596 53.3105 66.0596 51.9916C66.0596 50.6727 66.8911 49.6836 67.9998 49.6836C69.0161 49.6836 69.94 50.6727 69.94 51.9916Z" fill="#FFCF2D"/>
<path d="M86.4781 51.9916C86.4781 53.3105 85.6466 54.2996 84.5379 54.2996C83.4292 54.2996 82.5977 53.3105 82.5977 51.9916C82.5977 50.6727 83.4292 49.6836 84.5379 49.6836C85.6466 49.6836 86.4781 50.6727 86.4781 51.9916Z" fill="#FFCF2D"/>
<path d="M102.924 51.9916C102.924 53.3105 102.092 54.2996 100.984 54.2996C99.875 54.2996 99.0435 53.3105 99.0435 51.9916C99.0435 50.6727 99.875 49.6836 100.984 49.6836C102.092 49.6836 102.924 50.6727 102.924 51.9916Z" fill="#FFCF2D"/>
<path d="M119.462 51.9916C119.462 53.3105 118.63 54.2996 117.522 54.2996C116.413 54.2996 115.582 53.3105 115.582 51.9916C115.582 50.6727 116.413 49.6836 117.522 49.6836C118.63 49.6836 119.462 50.6727 119.462 51.9916Z" fill="#FFCF2D"/>
<path d="M136 51.9915C136 53.3104 135.169 54.2995 134.06 54.2995C132.951 54.2995 132.12 53.3104 132.12 51.9915C132.12 50.6727 132.951 49.6836 134.06 49.6836C135.076 49.6836 136 50.6727 136 51.9915Z" fill="#FFCF2D"/>
<path d="M3.88043 2.9759C3.88043 4.29473 3.04891 5.28384 1.94022 5.28384C0.831521 5.28384 0 4.29473 0 2.9759C0 1.65708 0.831521 0.667969 1.94022 0.667969C3.04891 0.667969 3.88043 1.65708 3.88043 2.9759Z" fill="#FFCF2D"/>
<path d="M20.4185 2.9759C20.4185 4.29473 19.587 5.28384 18.4783 5.28384C17.3696 5.28384 16.5381 4.29473 16.5381 2.9759C16.5381 1.65708 17.3696 0.667969 18.4783 0.667969C19.4946 0.667969 20.4185 1.65708 20.4185 2.9759Z" fill="#FFCF2D"/>
<path d="M36.8643 2.9759C36.8643 4.29473 36.0328 5.28384 34.9241 5.28384C33.8154 5.28384 32.9839 4.29473 32.9839 2.9759C32.9839 1.65708 33.9078 0.667969 34.9241 0.667969C36.0328 0.667969 36.8643 1.65708 36.8643 2.9759Z" fill="#FFCF2D"/>
<path d="M53.4024 2.9759C53.4024 4.29473 52.5709 5.28384 51.4622 5.28384C50.3535 5.28384 49.522 4.29473 49.522 2.9759C49.522 1.65708 50.4459 0.667969 51.4622 0.667969C52.4785 0.667969 53.4024 1.65708 53.4024 2.9759Z" fill="#FFCF2D"/>
<path d="M69.94 2.9759C69.94 4.29473 69.1085 5.28384 67.9998 5.28384C66.8911 5.28384 66.0596 4.29473 66.0596 2.9759C66.0596 1.65708 66.8911 0.667969 67.9998 0.667969C69.0161 0.667969 69.94 1.65708 69.94 2.9759Z" fill="#FFCF2D"/>
<path d="M86.4781 2.9759C86.4781 4.29473 85.6466 5.28384 84.5379 5.28384C83.4292 5.28384 82.5977 4.29473 82.5977 2.9759C82.5977 1.65708 83.4292 0.667969 84.5379 0.667969C85.6466 0.667969 86.4781 1.65708 86.4781 2.9759Z" fill="#FFCF2D"/>
<path d="M102.924 2.97584C102.924 4.29463 102.092 5.28371 100.984 5.28371C99.875 5.28371 99.0435 4.29463 99.0435 2.97584C99.0435 1.65706 99.875 0.667969 100.984 0.667969C102.092 0.667969 102.924 1.65706 102.924 2.97584Z" fill="#FFCF2D"/>
<path d="M119.462 2.9759C119.462 4.29473 118.63 5.28384 117.522 5.28384C116.413 5.28384 115.582 4.29473 115.582 2.9759C115.582 1.65708 116.413 0.667969 117.522 0.667969C118.63 0.667969 119.462 1.65708 119.462 2.9759Z" fill="#FFCF2D"/>
<path d="M136 2.9759C136 4.29473 135.169 5.28384 134.06 5.28384C132.951 5.28384 132.12 4.29473 132.12 2.9759C132.12 1.65708 132.951 0.667969 134.06 0.667969C135.076 0.667969 136 1.65708 136 2.9759Z" fill="#FFCF2D"/>
<path d="M3.88045 19.351C3.88045 20.6698 3.04892 21.659 1.94022 21.659C0.831524 21.659 0 20.5599 0 19.351C0 18.0321 0.831524 17.043 1.94022 17.043C3.04892 17.043 3.88045 18.0321 3.88045 19.351Z" fill="#FFCF2D"/>
<path d="M20.4185 19.351C20.4185 20.6698 19.587 21.659 18.4783 21.659C17.3696 21.659 16.5381 20.6698 16.5381 19.351C16.5381 18.0321 17.3696 17.043 18.4783 17.043C19.4946 17.043 20.4185 18.0321 20.4185 19.351Z" fill="#FFCF2D"/>
<path d="M36.8643 19.351C36.8643 20.6698 36.0328 21.659 34.9241 21.659C33.8154 21.659 32.9839 20.6698 32.9839 19.351C32.9839 18.0321 33.8154 17.043 34.9241 17.043C36.0328 17.043 36.8643 18.0321 36.8643 19.351Z" fill="#FFCF2D"/>
<path d="M53.4024 19.3509C53.4024 20.6697 52.5709 21.6588 51.4622 21.6588C50.3535 21.6588 49.522 20.6697 49.522 19.3509C49.522 18.0321 50.3535 17.043 51.4622 17.043C52.5709 17.043 53.4024 18.0321 53.4024 19.3509Z" fill="#FFCF2D"/>
<path d="M69.94 19.351C69.94 20.6698 69.1085 21.659 67.9998 21.659C66.8911 21.659 66.0596 20.6698 66.0596 19.351C66.0596 18.0321 66.8911 17.043 67.9998 17.043C69.0161 17.043 69.94 18.0321 69.94 19.351Z" fill="#FFCF2D"/>
<path d="M86.4781 19.351C86.4781 20.6698 85.6466 21.659 84.5379 21.659C83.4292 21.659 82.5977 20.6698 82.5977 19.351C82.5977 18.0321 83.4292 17.043 84.5379 17.043C85.6466 17.043 86.4781 18.0321 86.4781 19.351Z" fill="#FFCF2D"/>
<path d="M102.924 19.351C102.924 20.6698 102.092 21.659 100.984 21.659C99.875 21.659 99.0435 20.6698 99.0435 19.351C99.0435 18.0321 99.875 17.043 100.984 17.043C102.092 17.043 102.924 18.0321 102.924 19.351Z" fill="#FFCF2D"/>
<path d="M119.462 19.351C119.462 20.6698 118.63 21.659 117.522 21.659C116.413 21.659 115.582 20.6698 115.582 19.351C115.582 18.0321 116.413 17.043 117.522 17.043C118.63 17.043 119.462 18.0321 119.462 19.351Z" fill="#FFCF2D"/>
<path d="M136 19.351C136 20.6698 135.169 21.659 134.06 21.659C132.951 21.659 132.12 20.6698 132.12 19.351C132.12 18.0321 132.951 17.043 134.06 17.043C135.076 17.043 136 18.0321 136 19.351Z" fill="#FFCF2D"/>
<path d="M3.88043 68.2571C3.88043 69.5759 3.04891 70.565 1.94022 70.565C0.831521 70.565 0 69.5759 0 68.2571C0 66.9383 0.831521 65.9492 1.94022 65.9492C3.04891 65.9492 3.88043 67.0482 3.88043 68.2571Z" fill="#FFCF2D"/>
<path d="M20.4185 68.257C20.4185 69.5758 19.587 70.5648 18.4783 70.5648C17.3696 70.5648 16.5381 69.5758 16.5381 68.257C16.5381 66.9383 17.3696 65.9492 18.4783 65.9492C19.4946 65.9492 20.4185 67.0482 20.4185 68.257Z" fill="#FFCF2D"/>
<path d="M36.8643 68.2571C36.8643 69.5759 36.0328 70.565 34.9241 70.565C33.8154 70.565 32.9839 69.5759 32.9839 68.2571C32.9839 66.9383 33.8154 65.9492 34.9241 65.9492C36.0328 65.9492 36.8643 67.0482 36.8643 68.2571Z" fill="#FFCF2D"/>
<path d="M53.4024 68.2571C53.4024 69.5759 52.5709 70.565 51.4622 70.565C50.3535 70.565 49.522 69.5759 49.522 68.2571C49.522 66.9383 50.3535 65.9492 51.4622 65.9492C52.5709 65.9492 53.4024 67.0482 53.4024 68.2571Z" fill="#FFCF2D"/>
<path d="M69.94 68.2571C69.94 69.5759 69.1085 70.565 67.9998 70.565C66.8911 70.565 66.0596 69.5759 66.0596 68.2571C66.0596 66.9383 66.8911 65.9492 67.9998 65.9492C69.0161 65.9492 69.94 67.0482 69.94 68.2571Z" fill="#FFCF2D"/>
<path d="M86.4781 68.2571C86.4781 69.5759 85.6466 70.565 84.5379 70.565C83.4292 70.565 82.5977 69.5759 82.5977 68.2571C82.5977 66.9383 83.4292 65.9492 84.5379 65.9492C85.6466 65.9492 86.4781 67.0482 86.4781 68.2571Z" fill="#FFCF2D"/>
<path d="M102.924 68.2571C102.924 69.5759 102.092 70.565 100.984 70.565C99.875 70.565 99.0435 69.5759 99.0435 68.2571C99.0435 66.9383 99.875 65.9492 100.984 65.9492C102.092 65.9492 102.924 67.0482 102.924 68.2571Z" fill="#FFCF2D"/>
<path d="M119.462 68.2571C119.462 69.5759 118.63 70.565 117.522 70.565C116.413 70.565 115.582 69.5759 115.582 68.2571C115.582 66.9383 116.413 65.9492 117.522 65.9492C118.63 65.9492 119.462 67.0482 119.462 68.2571Z" fill="#FFCF2D"/>
<path d="M136 68.257C136 69.5758 135.169 70.5648 134.06 70.5648C132.951 70.5648 132.12 69.5758 132.12 68.257C132.12 66.9383 132.951 65.9492 134.06 65.9492C135.076 65.9492 136 67.0482 136 68.257Z" fill="#FFCF2D"/>
<path d="M3.88043 84.632C3.88043 85.9507 3.04891 86.9397 1.94022 86.9397C0.831521 86.9397 0 85.9507 0 84.632C0 83.3133 0.831521 82.3242 1.94022 82.3242C3.04891 82.3242 3.88043 83.3133 3.88043 84.632Z" fill="#FFCF2D"/>
<path d="M20.4185 84.632C20.4185 85.9508 19.587 86.9398 18.4783 86.9398C17.3696 86.9398 16.5381 85.9508 16.5381 84.632C16.5381 83.3133 17.3696 82.3242 18.4783 82.3242C19.4946 82.3242 20.4185 83.3133 20.4185 84.632Z" fill="#FFCF2D"/>
<path d="M36.8643 84.632C36.8643 85.9508 36.0328 86.9398 34.9241 86.9398C33.8154 86.9398 32.9839 85.9508 32.9839 84.632C32.9839 83.3133 33.8154 82.3242 34.9241 82.3242C36.0328 82.3242 36.8643 83.3133 36.8643 84.632Z" fill="#FFCF2D"/>
<path d="M51.4622 86.9398C52.5337 86.9398 53.4024 85.9066 53.4024 84.632C53.4024 83.3575 52.5337 82.3242 51.4622 82.3242C50.3906 82.3242 49.522 83.3575 49.522 84.632C49.522 85.9066 50.3906 86.9398 51.4622 86.9398Z" fill="#FFCF2D"/>
<path d="M69.94 84.632C69.94 85.9508 69.1085 86.9398 67.9998 86.9398C66.8911 86.9398 66.0596 85.9508 66.0596 84.632C66.0596 83.3133 66.8911 82.3242 67.9998 82.3242C69.0161 82.3242 69.94 83.3133 69.94 84.632Z" fill="#FFCF2D"/>
<path d="M86.4781 84.632C86.4781 85.9508 85.6466 86.9398 84.5379 86.9398C83.4292 86.9398 82.5977 85.9508 82.5977 84.632C82.5977 83.3133 83.4292 82.3242 84.5379 82.3242C85.6466 82.3242 86.4781 83.3133 86.4781 84.632Z" fill="#FFCF2D"/>
<path d="M102.924 84.632C102.924 85.9508 102.092 86.9398 100.984 86.9398C99.875 86.9398 99.0435 85.9508 99.0435 84.632C99.0435 83.3133 99.875 82.3242 100.984 82.3242C102.092 82.3242 102.924 83.3133 102.924 84.632Z" fill="#FFCF2D"/>
<path d="M117.522 86.9397C118.593 86.9397 119.462 85.9065 119.462 84.632C119.462 83.3574 118.593 82.3242 117.522 82.3242C116.45 82.3242 115.582 83.3574 115.582 84.632C115.582 85.9065 116.45 86.9397 117.522 86.9397Z" fill="#FFCF2D"/>
<path d="M136 84.632C136 85.9508 135.169 86.9398 134.06 86.9398C132.951 86.9398 132.12 85.9508 132.12 84.632C132.12 83.3133 132.951 82.3242 134.06 82.3242C135.076 82.3242 136 83.3133 136 84.632Z" fill="#FFCF2D"/>
<path d="M3.88045 101.007C3.88045 102.326 3.04892 103.315 1.94022 103.315C0.831524 103.315 0 102.326 0 101.007C0 99.6884 0.831524 98.6992 1.94022 98.6992C3.04892 98.6992 3.88045 99.6884 3.88045 101.007Z" fill="#FFCF2D"/>
<path d="M20.4185 101.007C20.4185 102.326 19.587 103.315 18.4783 103.315C17.3696 103.315 16.5381 102.326 16.5381 101.007C16.5381 99.6884 17.3696 98.6992 18.4783 98.6992C19.4946 98.6992 20.4185 99.6884 20.4185 101.007Z" fill="#FFCF2D"/>
<path d="M36.8643 101.007C36.8643 102.326 36.0328 103.315 34.9241 103.315C33.8154 103.315 32.9839 102.326 32.9839 101.007C32.9839 99.6884 33.8154 98.6992 34.9241 98.6992C36.0328 98.6992 36.8643 99.6884 36.8643 101.007Z" fill="#FFCF2D"/>
<path d="M53.4024 101.007C53.4024 102.326 52.5709 103.315 51.4622 103.315C50.3535 103.315 49.522 102.326 49.522 101.007C49.522 99.6884 50.3535 98.6992 51.4622 98.6992C52.5709 98.6992 53.4024 99.6884 53.4024 101.007Z" fill="#FFCF2D"/>
<path d="M69.94 101.007C69.94 102.326 69.1085 103.315 67.9998 103.315C66.8911 103.315 66.0596 102.326 66.0596 101.007C66.0596 99.6884 66.8911 98.6992 67.9998 98.6992C69.0161 98.6992 69.94 99.6884 69.94 101.007Z" fill="#FFCF2D"/>
<path d="M86.4781 101.007C86.4781 102.326 85.6466 103.315 84.5379 103.315C83.4292 103.315 82.5977 102.326 82.5977 101.007C82.5977 99.6884 83.4292 98.6992 84.5379 98.6992C85.6466 98.6992 86.4781 99.6884 86.4781 101.007Z" fill="#FFCF2D"/>
<path d="M102.924 101.007C102.924 102.326 102.092 103.315 100.984 103.315C99.875 103.315 99.0435 102.326 99.0435 101.007C99.0435 99.6884 99.875 98.6992 100.984 98.6992C102.092 98.6992 102.924 99.6884 102.924 101.007Z" fill="#FFCF2D"/>
<path d="M119.462 101.007C119.462 102.326 118.63 103.315 117.522 103.315C116.413 103.315 115.582 102.326 115.582 101.007C115.582 99.6884 116.413 98.6992 117.522 98.6992C118.63 98.6992 119.462 99.6884 119.462 101.007Z" fill="#FFCF2D"/>
<path d="M136 101.007C136 102.326 135.169 103.315 134.06 103.315C132.951 103.315 132.12 102.326 132.12 101.007C132.12 99.6884 132.951 98.6992 134.06 98.6992C135.076 98.6992 136 99.6884 136 101.007Z" fill="#FFCF2D"/>
<path d="M3.88043 117.273C3.88043 118.592 3.04891 119.581 1.94022 119.581C0.831521 119.581 0 118.592 0 117.273C0 115.954 0.831521 114.965 1.94022 114.965C3.04891 114.965 3.88043 116.064 3.88043 117.273Z" fill="#FFCF2D"/>
<path d="M20.4185 117.273C20.4185 118.592 19.587 119.581 18.4783 119.581C17.3696 119.581 16.5381 118.592 16.5381 117.273C16.5381 115.954 17.3696 114.965 18.4783 114.965C19.4946 114.965 20.4185 116.064 20.4185 117.273Z" fill="#FFCF2D"/>
<path d="M36.8643 117.273C36.8643 118.592 36.0328 119.581 34.9241 119.581C33.8154 119.581 32.9839 118.592 32.9839 117.273C32.9839 115.954 33.8154 114.965 34.9241 114.965C36.0328 114.965 36.8643 116.064 36.8643 117.273Z" fill="#FFCF2D"/>
<path d="M53.4024 117.273C53.4024 118.592 52.5709 119.581 51.4622 119.581C50.3535 119.581 49.522 118.592 49.522 117.273C49.522 115.954 50.3535 114.965 51.4622 114.965C52.5709 114.965 53.4024 116.064 53.4024 117.273Z" fill="#FFCF2D"/>
<path d="M69.94 117.273C69.94 118.592 69.1085 119.581 67.9998 119.581C66.8911 119.581 66.0596 118.592 66.0596 117.273C66.0596 115.954 66.8911 114.965 67.9998 114.965C69.0161 114.965 69.94 116.064 69.94 117.273Z" fill="#FFCF2D"/>
<path d="M86.4781 117.273C86.4781 118.592 85.6465 119.581 84.5379 119.581C83.4292 119.581 82.5977 118.592 82.5977 117.273C82.5977 115.954 83.4292 114.965 84.5379 114.965C85.6465 114.965 86.4781 116.064 86.4781 117.273Z" fill="#FFCF2D"/>
<path d="M102.924 117.273C102.924 118.592 102.092 119.581 100.984 119.581C99.875 119.581 99.0435 118.592 99.0435 117.273C99.0435 115.954 99.875 114.965 100.984 114.965C102.092 114.965 102.924 116.064 102.924 117.273Z" fill="#FFCF2D"/>
<path d="M119.462 117.273C119.462 118.592 118.63 119.581 117.522 119.581C116.413 119.581 115.582 118.592 115.582 117.273C115.582 115.954 116.413 114.965 117.522 114.965C118.63 114.965 119.462 116.064 119.462 117.273Z" fill="#FFCF2D"/>
<path d="M136 117.273C136 118.592 135.169 119.581 134.06 119.581C132.951 119.581 132.12 118.592 132.12 117.273C132.12 115.954 132.951 114.965 134.06 114.965C135.076 114.965 136 116.064 136 117.273Z" fill="#FFCF2D"/>
</svg>
