<svg width="927" height="524" viewBox="0 0 927 524" fill="none" xmlns="http://www.w3.org/2000/svg">
<g clip-path="url(#clip0_2597_325)">
<path d="M4.08016 449.86C4.08016 451.025 3.20584 451.898 2.04008 451.898C0.874321 451.898 0 451.025 0 449.86C0 448.696 0.874321 447.822 2.04008 447.822C3.20584 447.822 4.08016 448.793 4.08016 449.86Z" fill="white"/>
<path d="M21.4693 449.86C21.4693 451.025 20.595 451.898 19.4292 451.898C18.2635 451.898 17.3892 451.025 17.3892 449.86C17.3892 448.696 18.2635 447.822 19.4292 447.822C20.4979 447.822 21.4693 448.793 21.4693 449.86Z" fill="white"/>
<path d="M38.7618 449.86C38.7618 451.025 37.8875 451.898 36.7217 451.898C35.556 451.898 34.6816 451.025 34.6816 449.86C34.6816 448.696 35.556 447.822 36.7217 447.822C37.8875 447.822 38.7618 448.793 38.7618 449.86Z" fill="white"/>
<path d="M56.151 449.86C56.151 451.025 55.2766 451.898 54.1109 451.898C52.9451 451.898 52.0708 451.025 52.0708 449.86C52.0708 448.696 52.9451 447.822 54.1109 447.822C55.2766 447.822 56.151 448.793 56.151 449.86Z" fill="white"/>
<path d="M73.5401 449.86C73.5401 451.025 72.6658 451.898 71.5 451.898C70.3343 451.898 69.46 451.025 69.46 449.86C69.46 448.696 70.3343 447.822 71.5 447.822C72.5687 447.822 73.5401 448.793 73.5401 449.86Z" fill="white"/>
<path d="M90.9293 449.86C90.9293 451.025 90.055 451.898 88.8892 451.898C87.7234 451.898 86.8491 451.025 86.8491 449.86C86.8491 448.696 87.7234 447.822 88.8892 447.822C90.055 447.822 90.9293 448.793 90.9293 449.86Z" fill="white"/>
<path d="M108.222 449.86C108.222 451.025 107.347 451.898 106.182 451.898C105.016 451.898 104.142 451.025 104.142 449.86C104.142 448.696 105.016 447.822 106.182 447.822C107.347 447.822 108.222 448.793 108.222 449.86Z" fill="white"/>
<path d="M125.611 449.86C125.611 451.025 124.737 451.898 123.571 451.898C122.405 451.898 121.531 451.025 121.531 449.86C121.531 448.696 122.405 447.822 123.571 447.822C124.737 447.822 125.611 448.793 125.611 449.86Z" fill="white"/>
<path d="M143 449.86C143 451.025 142.126 451.898 140.96 451.898C139.794 451.898 138.92 451.025 138.92 449.86C138.92 448.696 139.794 447.822 140.96 447.822C142.029 447.822 143 448.793 143 449.86Z" fill="white"/>
<path d="M4.08016 464.319C4.08016 465.484 3.20584 466.357 2.04008 466.357C0.874321 466.357 0 465.484 0 464.319C0 463.155 0.874321 462.281 2.04008 462.281C3.20584 462.281 4.08016 463.155 4.08016 464.319Z" fill="white"/>
<path d="M21.4693 464.319C21.4693 465.484 20.595 466.357 19.4292 466.357C18.2635 466.357 17.3892 465.484 17.3892 464.319C17.3892 463.155 18.2635 462.281 19.4292 462.281C20.4979 462.281 21.4693 463.155 21.4693 464.319Z" fill="white"/>
<path d="M38.7618 464.319C38.7618 465.484 37.8875 466.357 36.7217 466.357C35.556 466.357 34.6816 465.484 34.6816 464.319C34.6816 463.155 35.556 462.281 36.7217 462.281C37.8875 462.281 38.7618 463.155 38.7618 464.319Z" fill="white"/>
<path d="M56.151 464.319C56.151 465.484 55.2766 466.357 54.1109 466.357C52.9451 466.357 52.0708 465.484 52.0708 464.319C52.0708 463.155 52.9451 462.281 54.1109 462.281C55.2766 462.281 56.151 463.155 56.151 464.319Z" fill="white"/>
<path d="M73.5401 464.319C73.5401 465.484 72.6658 466.357 71.5 466.357C70.3343 466.357 69.46 465.484 69.46 464.319C69.46 463.155 70.3343 462.281 71.5 462.281C72.5687 462.281 73.5401 463.155 73.5401 464.319Z" fill="white"/>
<path d="M90.9293 464.319C90.9293 465.484 90.055 466.357 88.8892 466.357C87.7234 466.357 86.8491 465.484 86.8491 464.319C86.8491 463.155 87.7234 462.281 88.8892 462.281C90.055 462.281 90.9293 463.155 90.9293 464.319Z" fill="white"/>
<path d="M108.222 464.319C108.222 465.484 107.347 466.357 106.182 466.357C105.016 466.357 104.142 465.484 104.142 464.319C104.142 463.155 105.016 462.281 106.182 462.281C107.347 462.281 108.222 463.155 108.222 464.319Z" fill="white"/>
<path d="M125.611 464.319C125.611 465.484 124.737 466.357 123.571 466.357C122.405 466.357 121.531 465.484 121.531 464.319C121.531 463.155 122.405 462.281 123.571 462.281C124.737 462.281 125.611 463.155 125.611 464.319Z" fill="white"/>
<path d="M143 464.319C143 465.484 142.126 466.357 140.96 466.357C139.794 466.357 138.92 465.484 138.92 464.319C138.92 463.155 139.794 462.281 140.96 462.281C142.029 462.281 143 463.155 143 464.319Z" fill="white"/>
<path d="M4.08016 421.038C4.08016 422.202 3.20584 423.076 2.04008 423.076C0.874321 423.076 0 422.202 0 421.038C0 419.873 0.874321 419 2.04008 419C3.20584 419 4.08016 419.873 4.08016 421.038Z" fill="white"/>
<path d="M21.4693 421.038C21.4693 422.202 20.595 423.076 19.4292 423.076C18.2635 423.076 17.3892 422.202 17.3892 421.038C17.3892 419.873 18.2635 419 19.4292 419C20.4979 419 21.4693 419.873 21.4693 421.038Z" fill="white"/>
<path d="M38.7618 421.038C38.7618 422.202 37.8875 423.076 36.7217 423.076C35.556 423.076 34.6816 422.202 34.6816 421.038C34.6816 419.873 35.6531 419 36.7217 419C37.8875 419 38.7618 419.873 38.7618 421.038Z" fill="white"/>
<path d="M56.151 421.038C56.151 422.202 55.2766 423.076 54.1109 423.076C52.9451 423.076 52.0708 422.202 52.0708 421.038C52.0708 419.873 53.0423 419 54.1109 419C55.1795 419 56.151 419.873 56.151 421.038Z" fill="white"/>
<path d="M73.5401 421.038C73.5401 422.202 72.6658 423.076 71.5 423.076C70.3343 423.076 69.46 422.202 69.46 421.038C69.46 419.873 70.3343 419 71.5 419C72.5687 419 73.5401 419.873 73.5401 421.038Z" fill="white"/>
<path d="M90.9293 421.038C90.9293 422.202 90.055 423.076 88.8892 423.076C87.7234 423.076 86.8491 422.202 86.8491 421.038C86.8491 419.873 87.7234 419 88.8892 419C90.055 419 90.9293 419.873 90.9293 421.038Z" fill="white"/>
<path d="M108.222 421.038C108.222 422.202 107.347 423.076 106.182 423.076C105.016 423.076 104.142 422.202 104.142 421.038C104.142 419.873 105.016 419 106.182 419C107.347 419 108.222 419.873 108.222 421.038Z" fill="white"/>
<path d="M125.611 421.038C125.611 422.202 124.737 423.076 123.571 423.076C122.405 423.076 121.531 422.202 121.531 421.038C121.531 419.873 122.405 419 123.571 419C124.737 419 125.611 419.873 125.611 421.038Z" fill="white"/>
<path d="M143 421.038C143 422.202 142.126 423.076 140.96 423.076C139.794 423.076 138.92 422.202 138.92 421.038C138.92 419.873 139.794 419 140.96 419C142.029 419 143 419.873 143 421.038Z" fill="white"/>
<path d="M4.08016 435.497C4.08016 436.661 3.20584 437.535 2.04008 437.535C0.874321 437.535 0 436.564 0 435.497C0 434.332 0.874321 433.459 2.04008 433.459C3.20584 433.459 4.08016 434.332 4.08016 435.497Z" fill="white"/>
<path d="M21.4693 435.497C21.4693 436.661 20.595 437.535 19.4292 437.535C18.2635 437.535 17.3892 436.661 17.3892 435.497C17.3892 434.332 18.2635 433.459 19.4292 433.459C20.4979 433.459 21.4693 434.332 21.4693 435.497Z" fill="white"/>
<path d="M38.7618 435.497C38.7618 436.661 37.8875 437.535 36.7217 437.535C35.556 437.535 34.6816 436.661 34.6816 435.497C34.6816 434.332 35.556 433.459 36.7217 433.459C37.8875 433.459 38.7618 434.332 38.7618 435.497Z" fill="white"/>
<path d="M56.151 435.497C56.151 436.661 55.2766 437.535 54.1109 437.535C52.9451 437.535 52.0708 436.661 52.0708 435.497C52.0708 434.332 52.9451 433.459 54.1109 433.459C55.2766 433.459 56.151 434.332 56.151 435.497Z" fill="white"/>
<path d="M73.5401 435.497C73.5401 436.661 72.6658 437.535 71.5 437.535C70.3343 437.535 69.46 436.661 69.46 435.497C69.46 434.332 70.3343 433.459 71.5 433.459C72.5687 433.459 73.5401 434.332 73.5401 435.497Z" fill="white"/>
<path d="M90.9293 435.497C90.9293 436.661 90.055 437.535 88.8892 437.535C87.7234 437.535 86.8491 436.661 86.8491 435.497C86.8491 434.332 87.7234 433.459 88.8892 433.459C90.055 433.459 90.9293 434.332 90.9293 435.497Z" fill="white"/>
<path d="M108.222 435.497C108.222 436.661 107.347 437.535 106.182 437.535C105.016 437.535 104.142 436.661 104.142 435.497C104.142 434.332 105.016 433.459 106.182 433.459C107.347 433.459 108.222 434.332 108.222 435.497Z" fill="white"/>
<path d="M125.611 435.497C125.611 436.661 124.737 437.535 123.571 437.535C122.405 437.535 121.531 436.661 121.531 435.497C121.531 434.332 122.405 433.459 123.571 433.459C124.737 433.459 125.611 434.332 125.611 435.497Z" fill="white"/>
<path d="M143 435.497C143 436.661 142.126 437.535 140.96 437.535C139.794 437.535 138.92 436.661 138.92 435.497C138.92 434.332 139.794 433.459 140.96 433.459C142.029 433.459 143 434.332 143 435.497Z" fill="white"/>
<path d="M4.08016 478.68C4.08016 479.845 3.20584 480.718 2.04008 480.718C0.874321 480.718 0 479.845 0 478.68C0 477.516 0.874321 476.643 2.04008 476.643C3.20584 476.643 4.08016 477.613 4.08016 478.68Z" fill="white"/>
<path d="M21.4693 478.68C21.4693 479.845 20.595 480.718 19.4292 480.718C18.2635 480.718 17.3892 479.845 17.3892 478.68C17.3892 477.516 18.2635 476.643 19.4292 476.643C20.4979 476.643 21.4693 477.613 21.4693 478.68Z" fill="white"/>
<path d="M38.7618 478.68C38.7618 479.845 37.8875 480.718 36.7217 480.718C35.556 480.718 34.6816 479.845 34.6816 478.68C34.6816 477.516 35.556 476.643 36.7217 476.643C37.8875 476.643 38.7618 477.613 38.7618 478.68Z" fill="white"/>
<path d="M56.151 478.68C56.151 479.845 55.2766 480.718 54.1109 480.718C52.9451 480.718 52.0708 479.845 52.0708 478.68C52.0708 477.516 52.9451 476.643 54.1109 476.643C55.2766 476.643 56.151 477.613 56.151 478.68Z" fill="white"/>
<path d="M73.5401 478.68C73.5401 479.845 72.6658 480.718 71.5 480.718C70.3343 480.718 69.46 479.845 69.46 478.68C69.46 477.516 70.3343 476.643 71.5 476.643C72.5687 476.643 73.5401 477.613 73.5401 478.68Z" fill="white"/>
<path d="M90.9293 478.68C90.9293 479.845 90.055 480.718 88.8892 480.718C87.7234 480.718 86.8491 479.845 86.8491 478.68C86.8491 477.516 87.7234 476.643 88.8892 476.643C90.055 476.643 90.9293 477.613 90.9293 478.68Z" fill="white"/>
<path d="M108.222 478.68C108.222 479.845 107.347 480.718 106.182 480.718C105.016 480.718 104.142 479.845 104.142 478.68C104.142 477.516 105.016 476.643 106.182 476.643C107.347 476.643 108.222 477.613 108.222 478.68Z" fill="white"/>
<path d="M125.611 478.68C125.611 479.845 124.737 480.718 123.571 480.718C122.405 480.718 121.531 479.845 121.531 478.68C121.531 477.516 122.405 476.643 123.571 476.643C124.737 476.643 125.611 477.613 125.611 478.68Z" fill="white"/>
<path d="M143 478.68C143 479.845 142.126 480.718 140.96 480.718C139.794 480.718 138.92 479.845 138.92 478.68C138.92 477.516 139.794 476.643 140.96 476.643C142.029 476.643 143 477.613 143 478.68Z" fill="white"/>
<path d="M4.08016 493.139C4.08016 494.304 3.20584 495.177 2.04008 495.177C0.874321 495.177 0 494.304 0 493.139C0 491.975 0.874321 491.102 2.04008 491.102C3.20584 491.102 4.08016 491.975 4.08016 493.139Z" fill="white"/>
<path d="M21.4693 493.139C21.4693 494.304 20.595 495.177 19.4292 495.177C18.2635 495.177 17.3892 494.304 17.3892 493.139C17.3892 491.975 18.2635 491.102 19.4292 491.102C20.4979 491.102 21.4693 491.975 21.4693 493.139Z" fill="white"/>
<path d="M38.7618 493.139C38.7618 494.304 37.8875 495.177 36.7217 495.177C35.556 495.177 34.6816 494.304 34.6816 493.139C34.6816 491.975 35.556 491.102 36.7217 491.102C37.8875 491.102 38.7618 491.975 38.7618 493.139Z" fill="white"/>
<path d="M54.1109 495.177C55.2376 495.177 56.151 494.265 56.151 493.139C56.151 492.014 55.2376 491.102 54.1109 491.102C52.9842 491.102 52.0708 492.014 52.0708 493.139C52.0708 494.265 52.9842 495.177 54.1109 495.177Z" fill="white"/>
<path d="M73.5401 493.139C73.5401 494.304 72.6658 495.177 71.5 495.177C70.3343 495.177 69.46 494.304 69.46 493.139C69.46 491.975 70.3343 491.102 71.5 491.102C72.5687 491.102 73.5401 491.975 73.5401 493.139Z" fill="white"/>
<path d="M90.9293 493.139C90.9293 494.304 90.055 495.177 88.8892 495.177C87.7234 495.177 86.8491 494.304 86.8491 493.139C86.8491 491.975 87.7234 491.102 88.8892 491.102C90.055 491.102 90.9293 491.975 90.9293 493.139Z" fill="white"/>
<path d="M108.222 493.139C108.222 494.304 107.347 495.177 106.182 495.177C105.016 495.177 104.142 494.304 104.142 493.139C104.142 491.975 105.016 491.102 106.182 491.102C107.347 491.102 108.222 491.975 108.222 493.139Z" fill="white"/>
<path d="M123.571 495.177C124.698 495.177 125.611 494.265 125.611 493.139C125.611 492.014 124.698 491.102 123.571 491.102C122.444 491.102 121.531 492.014 121.531 493.139C121.531 494.265 122.444 495.177 123.571 495.177Z" fill="white"/>
<path d="M143 493.139C143 494.304 142.126 495.177 140.96 495.177C139.794 495.177 138.92 494.304 138.92 493.139C138.92 491.975 139.794 491.102 140.96 491.102C142.029 491.102 143 491.975 143 493.139Z" fill="white"/>
<path d="M4.08016 507.6C4.08016 508.765 3.20584 509.638 2.04008 509.638C0.874321 509.638 0 508.765 0 507.6C0 506.436 0.874321 505.562 2.04008 505.562C3.20584 505.562 4.08016 506.436 4.08016 507.6Z" fill="white"/>
<path d="M21.4693 507.6C21.4693 508.765 20.595 509.638 19.4292 509.638C18.2635 509.638 17.3892 508.765 17.3892 507.6C17.3892 506.436 18.2635 505.562 19.4292 505.562C20.4979 505.562 21.4693 506.436 21.4693 507.6Z" fill="white"/>
<path d="M38.7618 507.6C38.7618 508.765 37.8875 509.638 36.7217 509.638C35.556 509.638 34.6816 508.765 34.6816 507.6C34.6816 506.436 35.556 505.562 36.7217 505.562C37.8875 505.562 38.7618 506.436 38.7618 507.6Z" fill="white"/>
<path d="M56.151 507.6C56.151 508.765 55.2766 509.638 54.1109 509.638C52.9451 509.638 52.0708 508.765 52.0708 507.6C52.0708 506.436 52.9451 505.562 54.1109 505.562C55.2766 505.562 56.151 506.436 56.151 507.6Z" fill="white"/>
<path d="M73.5401 507.6C73.5401 508.765 72.6658 509.638 71.5 509.638C70.3343 509.638 69.46 508.765 69.46 507.6C69.46 506.436 70.3343 505.562 71.5 505.562C72.5687 505.562 73.5401 506.436 73.5401 507.6Z" fill="white"/>
<path d="M90.9293 507.6C90.9293 508.765 90.055 509.638 88.8892 509.638C87.7234 509.638 86.8491 508.765 86.8491 507.6C86.8491 506.436 87.7234 505.562 88.8892 505.562C90.055 505.562 90.9293 506.436 90.9293 507.6Z" fill="white"/>
<path d="M108.222 507.6C108.222 508.765 107.347 509.638 106.182 509.638C105.016 509.638 104.142 508.765 104.142 507.6C104.142 506.436 105.016 505.562 106.182 505.562C107.347 505.562 108.222 506.436 108.222 507.6Z" fill="white"/>
<path d="M125.611 507.6C125.611 508.765 124.737 509.638 123.571 509.638C122.405 509.638 121.531 508.765 121.531 507.6C121.531 506.436 122.405 505.562 123.571 505.562C124.737 505.562 125.611 506.436 125.611 507.6Z" fill="white"/>
<path d="M143 507.6C143 508.765 142.126 509.638 140.96 509.638C139.794 509.638 138.92 508.765 138.92 507.6C138.92 506.436 139.794 505.562 140.96 505.562C142.029 505.562 143 506.436 143 507.6Z" fill="white"/>
<path d="M4.08016 521.962C4.08016 523.126 3.20584 524 2.04008 524C0.874321 524 0 523.126 0 521.962C0 520.797 0.874321 519.924 2.04008 519.924C3.20584 519.924 4.08016 520.894 4.08016 521.962Z" fill="white"/>
<path d="M21.4693 521.962C21.4693 523.126 20.595 524 19.4292 524C18.2635 524 17.3892 523.126 17.3892 521.962C17.3892 520.797 18.2635 519.924 19.4292 519.924C20.4979 519.924 21.4693 520.894 21.4693 521.962Z" fill="white"/>
<path d="M38.7618 521.962C38.7618 523.126 37.8875 524 36.7217 524C35.556 524 34.6816 523.126 34.6816 521.962C34.6816 520.797 35.556 519.924 36.7217 519.924C37.8875 519.924 38.7618 520.894 38.7618 521.962Z" fill="white"/>
<path d="M56.151 521.962C56.151 523.126 55.2766 524 54.1109 524C52.9451 524 52.0708 523.126 52.0708 521.962C52.0708 520.797 52.9451 519.924 54.1109 519.924C55.2766 519.924 56.151 520.894 56.151 521.962Z" fill="white"/>
<path d="M73.5401 521.962C73.5401 523.126 72.6658 524 71.5 524C70.3343 524 69.46 523.126 69.46 521.962C69.46 520.797 70.3343 519.924 71.5 519.924C72.5687 519.924 73.5401 520.894 73.5401 521.962Z" fill="white"/>
<path d="M90.9293 521.962C90.9293 523.126 90.055 524 88.8892 524C87.7234 524 86.8491 523.126 86.8491 521.962C86.8491 520.797 87.7234 519.924 88.8892 519.924C90.055 519.924 90.9293 520.894 90.9293 521.962Z" fill="white"/>
<path d="M108.222 521.962C108.222 523.126 107.347 524 106.182 524C105.016 524 104.142 523.126 104.142 521.962C104.142 520.797 105.016 519.924 106.182 519.924C107.347 519.924 108.222 520.894 108.222 521.962Z" fill="white"/>
<path d="M125.611 521.962C125.611 523.126 124.737 524 123.571 524C122.405 524 121.531 523.126 121.531 521.962C121.531 520.797 122.405 519.924 123.571 519.924C124.737 519.924 125.611 520.894 125.611 521.962Z" fill="white"/>
<path d="M143 521.962C143 523.126 142.126 524 140.96 524C139.794 524 138.92 523.126 138.92 521.962C138.92 520.797 139.794 519.924 140.96 519.924C142.029 519.924 143 520.894 143 521.962Z" fill="white"/>
</g>
<g opacity="0.6">
<path d="M905.731 42.8901C916.328 42.8901 924.961 34.1647 924.961 23.4534C924.961 12.7422 916.328 4.01672 905.731 4.01672L905.731 42.8901Z" fill="white"/>
<path d="M875.731 42.8901C886.328 42.8901 894.961 34.1647 894.961 23.4534C894.961 12.7422 886.328 4.01672 875.731 4.01672L875.731 42.8901Z" fill="white"/>
<path d="M845.731 42.8902C856.328 42.8902 864.961 34.1647 864.961 23.4534C864.961 12.7422 856.328 4.01672 845.731 4.01672L845.731 42.8902Z" fill="white"/>
</g>
<defs>
<clipPath id="clip0_2597_325">
<rect width="143" height="105" fill="white" transform="translate(0 419)"/>
</clipPath>
</defs>
</svg>
